<svg width="16" height="17" viewBox="0 0 16 17" fill="none" xmlns="http://www.w3.org/2000/svg">
<g id="akar-icons:behance-fill" clip-path="url(#clip0_495_474)">
<g id="Group">
<g id="Group_2">
<path id="Vector" d="M14.6667 5.54818H10V4.21484H14.6667V5.54818ZM15.8173 12.2148C15.5227 13.0795 14.4647 14.2148 12.4167 14.2148C10.3673 14.2148 8.70733 13.0622 8.70733 10.4315C8.70733 7.82484 10.2573 6.48484 12.3513 6.48484C14.406 6.48484 15.6607 7.67284 15.9347 9.43551C15.9867 9.77284 16.0073 10.2275 15.998 10.8622H10.6467C10.7333 13.0028 12.9687 13.0702 13.7053 12.2148H15.8173ZM10.6933 9.54818H14.0033C13.9333 8.51684 13.246 8.06884 12.352 8.06884C11.3747 8.06884 10.834 8.58084 10.6933 9.54818ZM4.31067 14.2068H0V4.22884H4.63533C8.286 4.28284 8.35533 7.85818 6.44867 8.83284C8.756 9.67284 8.83333 14.2068 4.31067 14.2068ZM2 8.21484H4.38933C6.06133 8.21484 6.32667 6.21484 4.18133 6.21484H2V8.21484ZM4.26067 10.2148H2V12.2255H4.22733C6.264 12.2255 6.13933 10.2148 4.26067 10.2148Z" fill="#333333"/>
</g>
</g>
</g>
<defs>
<clipPath id="clip0_495_474">
<rect width="16" height="16" fill="white" transform="translate(0 0.881348)"/>
</clipPath>
</defs>
</svg>
