<svg width="17" height="17" viewBox="0 0 17 17" fill="none" xmlns="http://www.w3.org/2000/svg">
<g id="ant-design:dribbble-outlined">
<path id="Vector" d="M8.49558 1.9624C4.9112 1.9624 1.99557 4.87803 1.99557 8.4624C1.99557 12.0468 4.9112 14.9624 8.49558 14.9624C12.08 14.9624 14.9956 12.0468 14.9956 8.4624C14.9956 4.87803 12.08 1.9624 8.49558 1.9624ZM12.794 4.95928C13.5675 5.90459 14.0362 7.10772 14.0471 8.41865C13.8643 8.37959 12.0284 8.00771 10.1815 8.24053C10.1425 8.14521 10.1034 8.0499 10.0628 7.95459C9.94714 7.68428 9.8237 7.41396 9.69401 7.1499C11.7456 6.31084 12.6768 5.11865 12.794 4.95928ZM8.49558 2.91865C9.90651 2.91865 11.1956 3.44834 12.1753 4.31709C12.0753 4.45928 11.2393 5.58272 9.26589 6.32334C8.35651 4.65146 7.3487 3.27959 7.19401 3.07334C7.62058 2.97021 8.05651 2.91865 8.49558 2.91865ZM6.13464 3.44678C6.28151 3.64678 7.2737 5.02334 8.19245 6.65771C5.59558 7.34678 3.30808 7.3374 3.05964 7.33428C3.42058 5.61084 4.58151 4.17959 6.13464 3.44678ZM2.94401 8.47021C2.94401 8.41396 2.94557 8.35615 2.94714 8.2999C3.18932 8.30459 5.87995 8.33896 8.65339 7.50928C8.81276 7.82021 8.96433 8.13584 9.10339 8.45146C9.02995 8.47178 8.95651 8.49365 8.88464 8.51709C6.02058 9.44521 4.49714 11.9687 4.37058 12.1827C3.48464 11.1983 2.94401 9.89678 2.94401 8.47021ZM8.49558 14.0218C7.2112 14.0218 6.02839 13.5843 5.08776 12.8499C5.18776 12.6452 6.3112 10.4749 9.44245 9.38272L9.47839 9.37021C10.2581 11.3952 10.58 13.0937 10.6628 13.5812C9.97785 13.8739 9.24042 14.0238 8.49558 14.0218ZM11.5971 13.0733C11.5409 12.7358 11.2456 11.1108 10.519 9.11553C12.2596 8.8374 13.7878 9.29365 13.9768 9.35303C13.73 10.8968 12.844 12.2312 11.5971 13.0733Z" fill="#333333"/>
</g>
</svg>
