<svg width="168" height="42" viewBox="0 0 168 42" fill="none" xmlns="http://www.w3.org/2000/svg">
<g id="Frame" clip-path="url(#clip0_335_812)">
<path id="Vector" d="M49.2775 29.4524H61.2295V25.8524H53.5255V12.2924H49.2775V29.4524Z" fill="#333333"/>
<path id="Vector_2" d="M68.3107 27.0524C66.6067 27.0524 65.7187 25.5644 65.7187 23.3324C65.7187 21.1004 66.6067 19.5884 68.3107 19.5884C70.0147 19.5884 70.9267 21.1004 70.9267 23.3324C70.9267 25.5644 70.0147 27.0524 68.3107 27.0524ZM68.3347 29.8364C72.2947 29.8364 74.8867 27.0284 74.8867 23.3324C74.8867 19.6364 72.2947 16.8284 68.3347 16.8284C64.3987 16.8284 61.7587 19.6364 61.7587 23.3324C61.7587 27.0284 64.3987 29.8364 68.3347 29.8364Z" fill="#333333"/>
<path id="Vector_3" d="M81.7411 33.7004C83.5651 33.7004 85.1731 33.2924 86.2531 32.3324C87.2371 31.4444 87.8851 30.1004 87.8851 28.2524V17.1644H84.1411V18.4844H84.0931C83.3731 17.4524 82.2691 16.8044 80.6371 16.8044C77.5891 16.8044 75.4771 19.3484 75.4771 22.9484C75.4771 26.7164 78.0451 28.7804 80.8051 28.7804C82.2931 28.7804 83.2291 28.1804 83.9491 27.3644H84.0451V28.5884C84.0451 30.0764 83.3491 30.9404 81.6931 30.9404C80.3971 30.9404 79.7491 30.3884 79.5331 29.7404H75.7411C76.1251 32.3084 78.3571 33.7004 81.7411 33.7004ZM81.7171 25.8764C80.2531 25.8764 79.2931 24.6764 79.2931 22.8284C79.2931 20.9564 80.2531 19.7564 81.7171 19.7564C83.3491 19.7564 84.2131 21.1484 84.2131 22.8044C84.2131 24.5324 83.4211 25.8764 81.7171 25.8764Z" fill="#333333"/>
<path id="Vector_4" d="M95.5835 27.0524C93.8795 27.0524 92.9915 25.5644 92.9915 23.3324C92.9915 21.1004 93.8795 19.5884 95.5835 19.5884C97.2875 19.5884 98.1995 21.1004 98.1995 23.3324C98.1995 25.5644 97.2875 27.0524 95.5835 27.0524ZM95.6075 29.8364C99.5675 29.8364 102.159 27.0284 102.159 23.3324C102.159 19.6364 99.5675 16.8284 95.6075 16.8284C91.6715 16.8284 89.0315 19.6364 89.0315 23.3324C89.0315 27.0284 91.6715 29.8364 95.6075 29.8364Z" fill="#333333"/>
<path id="Vector_5" d="M103.302 29.4524H107.214V17.1644H103.302V29.4524ZM103.302 15.4604H107.214V12.2924H103.302V15.4604Z" fill="#333333"/>
<path id="Vector_6" d="M108.911 33.5084H112.823V28.1804H112.871C113.639 29.2124 114.767 29.8364 116.351 29.8364C119.567 29.8364 121.703 27.2924 121.703 23.3084C121.703 19.6124 119.711 16.8044 116.447 16.8044C114.767 16.8044 113.567 17.5484 112.727 18.6524H112.655V17.1644H108.911V33.5084ZM115.343 26.8124C113.663 26.8124 112.703 25.4444 112.703 23.4524C112.703 21.4604 113.567 19.9484 115.271 19.9484C116.951 19.9484 117.743 21.3404 117.743 23.4524C117.743 25.5404 116.831 26.8124 115.343 26.8124Z" fill="#333333"/>
<path id="Vector_7" d="M128.072 29.8364C131.288 29.8364 133.664 28.4444 133.664 25.7564C133.664 22.6124 131.12 22.0604 128.96 21.7004C127.4 21.4124 126.008 21.2924 126.008 20.4284C126.008 19.6604 126.752 19.3004 127.712 19.3004C128.792 19.3004 129.536 19.6364 129.68 20.7404H133.28C133.088 18.3164 131.216 16.8044 127.736 16.8044C124.832 16.8044 122.432 18.1484 122.432 20.7404C122.432 23.6204 124.712 24.1964 126.848 24.5564C128.48 24.8444 129.968 24.9644 129.968 26.0684C129.968 26.8604 129.224 27.2924 128.048 27.2924C126.752 27.2924 125.936 26.6924 125.792 25.4684H122.096C122.216 28.1804 124.472 29.8364 128.072 29.8364Z" fill="#333333"/>
<path id="Vector_8" d="M138.978 29.8124C140.682 29.8124 141.762 29.1404 142.65 27.9404H142.722V29.4524H146.466V17.1644H142.554V24.0284C142.554 25.4924 141.738 26.5004 140.394 26.5004C139.146 26.5004 138.546 25.7564 138.546 24.4124V17.1644H134.658V25.2284C134.658 27.9644 136.146 29.8124 138.978 29.8124Z" fill="#333333"/>
<path id="Vector_9" d="M148.168 29.4524H152.08V22.5644C152.08 21.1004 152.8 20.0684 154.024 20.0684C155.2 20.0684 155.752 20.8364 155.752 22.1564V29.4524H159.664V22.5644C159.664 21.1004 160.36 20.0684 161.608 20.0684C162.784 20.0684 163.336 20.8364 163.336 22.1564V29.4524H167.248V21.4604C167.248 18.7004 165.856 16.8044 163.072 16.8044C161.488 16.8044 160.168 17.4764 159.208 18.9644H159.16C158.536 17.6444 157.312 16.8044 155.704 16.8044C153.928 16.8044 152.752 17.6444 151.984 18.9164H151.912V17.1644H148.168V29.4524Z" fill="#333333"/>
<path id="Vector_10" d="M25.4099 2.47689L21.4769 1.42303L18.1625 13.7926L15.1702 2.62527L11.2371 3.67913L14.4701 15.7446L6.41746 7.69201L3.53827 10.5712L12.371 19.404L1.37124 16.4566L0.317383 20.3896L12.336 23.61C12.1984 23.0165 12.1256 22.3981 12.1256 21.7627C12.1256 17.2651 15.7716 13.6191 20.2692 13.6191C24.7668 13.6191 28.4128 17.2651 28.4128 21.7627C28.4128 22.394 28.3409 23.0086 28.205 23.5986L39.1277 26.5253L40.1815 22.5923L28.1151 19.3591L39.1156 16.4115L38.0617 12.4785L25.9958 15.7115L34.0484 7.65895L31.1692 4.77976L22.459 13.49L25.4099 2.47689Z" fill="#0099FF"/>
<path id="Vector_11" d="M28.1943 23.6444C27.8571 25.07 27.1452 26.3507 26.1684 27.3768L34.0814 35.2899L36.9606 32.4107L28.1943 23.6444Z" fill="#0099FF"/>
<path id="Vector_12" d="M26.0884 27.4596C25.0998 28.4693 23.8505 29.2228 22.4495 29.6111L25.3289 40.3571L29.2619 39.3032L26.0884 27.4596Z" fill="#0099FF"/>
<path id="Vector_13" d="M22.3026 29.6504C21.6526 29.8175 20.9713 29.9063 20.2692 29.9063C19.517 29.9063 18.7886 29.8043 18.0971 29.6134L15.2151 40.3692L19.1481 41.423L22.3026 29.6504Z" fill="#0099FF"/>
<path id="Vector_14" d="M17.9581 29.5737C16.5785 29.1661 15.3514 28.403 14.383 27.3904L6.45052 35.3229L9.32971 38.2021L17.9581 29.5737Z" fill="#0099FF"/>
<path id="Vector_15" d="M14.3168 27.3203C13.365 26.3013 12.6717 25.0377 12.3417 23.6341L1.38335 26.5704L2.4372 30.5034L14.3168 27.3203Z" fill="#0099FF"/>
</g>
<defs>
<clipPath id="clip0_335_812">
<rect width="168" height="41" fill="white" transform="translate(0 0.5)"/>
</clipPath>
</defs>
</svg>
