<svg width="16" height="17" viewBox="0 0 16 17" fill="none" xmlns="http://www.w3.org/2000/svg">
<g id="cib:linkedin-in" clip-path="url(#clip0_495_462)">
<path id="Vector" d="M4.134 14.8813H1.2315V5.53435H4.134V14.8813ZM2.681 4.25935C1.753 4.25935 1 3.49035 1 2.56235C1 2.11652 1.1771 1.68895 1.49235 1.3737C1.8076 1.05845 2.23517 0.881348 2.681 0.881348C3.12683 0.881348 3.5544 1.05845 3.86965 1.3737C4.1849 1.68895 4.362 2.11652 4.362 2.56235C4.362 3.49035 3.609 4.25935 2.681 4.25935ZM14.997 14.8813H12.101V10.3313C12.101 9.24685 12.079 7.85635 10.592 7.85635C9.083 7.85635 8.8515 9.03435 8.8515 10.2533V14.8813H5.952V5.53435H8.7355V6.80935H8.776C9.1635 6.07485 10.11 5.29985 11.522 5.29985C14.4595 5.29985 14.9995 7.23435 14.9995 9.74685V14.8813H14.997Z" fill="#333333"/>
</g>
<defs>
<clipPath id="clip0_495_462">
<rect width="16" height="16" fill="white" transform="translate(0 0.881348)"/>
</clipPath>
</defs>
</svg>
