<svg width="24" height="25" viewBox="0 0 24 25" fill="none" xmlns="http://www.w3.org/2000/svg">
<g id="carbon:email-new">
<path id="Vector" d="M14.25 18.5H3L2.99775 7.1795L11.5732 13.1165C11.6986 13.2033 11.8475 13.2497 12 13.2497C12.1525 13.2497 12.3014 13.2033 12.4268 13.1165L21 7.1825V14H22.5V6.5C22.4994 6.10236 22.3412 5.72117 22.06 5.44C21.7788 5.15882 21.3976 5.0006 21 5H3C2.6023 5.0004 2.221 5.15856 1.93978 5.43978C1.65856 5.721 1.5004 6.1023 1.5 6.5V18.5C1.5006 18.8976 1.65882 19.2788 1.94 19.56C2.22117 19.8412 2.60236 19.9994 3 20H14.25V18.5ZM19.3493 6.5L12 11.588L4.65075 6.5H19.3493Z" fill="#333333"/>
<path id="Vector_2" d="M19.5 21.5C21.1569 21.5 22.5 20.1569 22.5 18.5C22.5 16.8431 21.1569 15.5 19.5 15.5C17.8431 15.5 16.5 16.8431 16.5 18.5C16.5 20.1569 17.8431 21.5 19.5 21.5Z" fill="#333333"/>
</g>
</svg>
