<svg width="24" height="25" viewBox="0 0 24 25" fill="none" xmlns="http://www.w3.org/2000/svg">
<g id="akar-icons:phone">
<path id="Vector" d="M10.5542 6.74003L7.17123 2.83503C6.78123 2.38503 6.06623 2.38703 5.61323 2.84103L2.83123 5.62803C2.00323 6.45703 1.76623 7.68803 2.24523 8.67503C5.10685 14.6 9.88528 19.3851 15.8062 22.255C16.7922 22.734 18.0222 22.497 18.8502 21.668L21.6582 18.855C22.1132 18.4 22.1142 17.681 21.6602 17.291L17.7402 13.926C17.3302 13.574 16.6932 13.62 16.2822 14.032L14.9182 15.398C14.8484 15.4712 14.7565 15.5195 14.6566 15.5354C14.5567 15.5513 14.4543 15.5339 14.3652 15.486C12.1357 14.2021 10.2862 12.3503 9.00523 10.119C8.95726 10.0298 8.93989 9.92726 8.95578 9.82719C8.97168 9.72711 9.01996 9.63502 9.09323 9.56503L10.4532 8.20403C10.8652 7.79003 10.9102 7.15003 10.5542 6.73903V6.74003Z" stroke="#333333" stroke-width="2" stroke-linecap="round" stroke-linejoin="round"/>
</g>
</svg>
