<svg width="17" height="17" viewBox="0 0 17 17" fill="none" xmlns="http://www.w3.org/2000/svg">
<g id="bxl:pinterest-alt">
<path id="Vector" d="M4.08943 6.7672C4.08943 6.24854 4.18009 5.75854 4.35876 5.3012C4.52946 4.857 4.78308 4.44932 5.10609 4.09987C5.42845 3.75501 5.79734 3.4568 6.2021 3.21387C6.61737 2.96264 7.06696 2.7731 7.53676 2.6512C8.01224 2.52635 8.50183 2.46339 8.99343 2.46387C9.75276 2.46387 10.4594 2.62454 11.1148 2.94454C11.7615 3.2587 12.3121 3.74083 12.7088 4.34054C13.1181 4.95054 13.3214 5.64054 13.3214 6.40987C13.3214 6.8712 13.2761 7.32254 13.1834 7.76387C13.0924 8.20496 12.9478 8.63325 12.7528 9.0392C12.5668 9.43217 12.3238 9.79545 12.0314 10.1172C11.7376 10.4338 11.3818 10.6866 10.9861 10.8599C10.5565 11.0481 10.0918 11.1429 9.62276 11.1379C9.29676 11.1379 8.97143 11.0612 8.65009 10.9072C8.32876 10.7539 8.09809 10.5432 7.95943 10.2732C7.91076 10.4605 7.84409 10.7312 7.75543 11.0852C7.67009 11.4385 7.61276 11.6665 7.58743 11.7699C7.56076 11.8725 7.51143 12.0439 7.43943 12.2812C7.3906 12.4568 7.32796 12.6282 7.25209 12.7939L7.02276 13.2432C6.92358 13.436 6.81271 13.6226 6.69076 13.8019C6.57009 13.9765 6.42076 14.1852 6.24276 14.4252L6.14343 14.4605L6.07743 14.3885C6.00609 13.6332 5.96943 13.1812 5.96943 13.0319C5.96943 12.5899 6.02209 12.0939 6.12609 11.5432C6.22809 10.9932 6.38943 10.3019 6.6061 9.47054C6.82276 8.63987 6.94676 8.1512 6.98009 8.00654C6.82743 7.6952 6.75009 7.28854 6.75009 6.78854C6.75009 6.3892 6.87476 6.0152 7.12476 5.6632C7.37543 5.31254 7.69209 5.1372 8.07609 5.1372C8.37009 5.1372 8.59809 5.23454 8.76143 5.42987C8.92543 5.62454 9.00543 5.86987 9.00543 6.1692C9.00543 6.48654 8.90009 6.94587 8.68809 7.54654C8.47609 8.14787 8.37076 8.59654 8.37076 8.89454C8.37076 9.19654 8.47876 9.4492 8.69476 9.6472C8.90793 9.8453 9.18982 9.95266 9.48076 9.94654C9.74476 9.94654 9.98943 9.88654 10.2168 9.76587C10.4405 9.64874 10.6342 9.4815 10.7828 9.2772C11.1062 8.8334 11.3368 8.32889 11.4608 7.79387C11.5248 7.51254 11.5741 7.2452 11.6048 6.99387C11.6374 6.7412 11.6514 6.50254 11.6514 6.27587C11.6514 5.44454 11.3874 4.79654 10.8628 4.33254C10.3354 3.86854 9.64876 3.63787 8.80409 3.63787C7.84343 3.63787 7.04009 3.94854 6.39676 4.57187C5.75276 5.1932 5.42876 5.9832 5.42876 6.9412C5.42876 7.15254 5.46076 7.35654 5.52143 7.55387C5.58076 7.75054 5.64543 7.9072 5.71543 8.0232C5.78476 8.1372 5.8501 8.24854 5.90943 8.3512C5.96943 8.45387 6.00076 8.5272 6.00076 8.5712C6.00076 8.70587 5.96543 8.8812 5.89409 9.09787C5.82009 9.31454 5.73276 9.42254 5.62743 9.42254C5.61743 9.42254 5.57609 9.4152 5.50409 9.39987C5.25474 9.32543 5.02955 9.18626 4.85143 8.99654C4.66239 8.79991 4.5132 8.56854 4.41209 8.3152C4.31128 8.06277 4.23276 7.802 4.17743 7.53587C4.11765 7.28406 4.08811 7.02601 4.08943 6.7672Z" fill="#333333"/>
</g>
</svg>
