<svg width="16" height="17" viewBox="0 0 16 17" fill="none" xmlns="http://www.w3.org/2000/svg">
<g id="akar-icons:twitter-fill">
<path id="Vector" d="M15.762 4.17257C15.2053 4.41924 14.6073 4.5859 13.9787 4.66124C14.6273 4.2731 15.1126 3.66221 15.344 2.94257C14.7346 3.30456 14.0676 3.55937 13.372 3.6959C12.9043 3.19648 12.2847 2.86545 11.6095 2.75422C10.9344 2.64298 10.2414 2.75776 9.63816 3.08074C9.03492 3.40371 8.55518 3.91681 8.27343 4.54037C7.99169 5.16393 7.92369 5.86307 8.08 6.52924C6.84512 6.46723 5.63708 6.14627 4.53428 5.58717C3.43148 5.02808 2.45856 4.24334 1.67866 3.2839C1.412 3.7439 1.25866 4.27724 1.25866 4.84524C1.25837 5.35657 1.38429 5.86006 1.62525 6.31106C1.86621 6.76205 2.21477 7.14659 2.64 7.43057C2.14685 7.41488 1.66458 7.28163 1.23333 7.0419V7.0819C1.23328 7.79906 1.48135 8.49415 1.93545 9.04923C2.38955 9.60431 3.02171 9.98519 3.72466 10.1272C3.26719 10.251 2.78756 10.2693 2.322 10.1806C2.52033 10.7976 2.90666 11.3373 3.42691 11.7239C3.94716 12.1105 4.57528 12.3247 5.22333 12.3366C4.12322 13.2002 2.76459 13.6686 1.366 13.6666C1.11825 13.6666 0.870715 13.6522 0.624664 13.6232C2.04432 14.536 3.69689 15.0204 5.38467 15.0186C11.098 15.0186 14.2213 10.2866 14.2213 6.18257C14.2213 6.04924 14.218 5.91457 14.212 5.78124C14.8195 5.34189 15.3439 4.79783 15.7607 4.17457L15.762 4.17257Z" fill="#333333"/>
</g>
</svg>
