<svg width="32" height="33" viewBox="0 0 32 33" fill="none" xmlns="http://www.w3.org/2000/svg">
<g id="Group 38548">
<rect id="Rectangle 4663" y="0.881348" width="32" height="32" rx="4" fill="white"/>
<path id="Vector" d="M16.1548 8.45996C11.5888 8.45996 7.88684 12.1329 7.88684 16.6642C7.88684 18.2142 8.32038 19.6638 9.07327 20.9005L7.58105 25.3021L12.1586 23.8479C13.3432 24.4977 14.7055 24.8684 16.1548 24.8684C20.7215 24.8684 24.4232 21.1949 24.4232 16.6642C24.4232 12.1329 20.7215 8.45996 16.1548 8.45996ZM20.2662 19.7799C20.0717 20.2621 19.192 20.7022 18.8038 20.7224C18.4161 20.743 18.405 21.023 16.291 20.1046C14.1773 19.1861 12.9056 16.9526 12.8053 16.8088C12.705 16.6655 11.9865 15.6416 12.0253 14.6112C12.0643 13.5806 12.6286 13.0944 12.83 12.8922C13.0311 12.6897 13.2618 12.6534 13.4026 12.6511C13.5691 12.6484 13.6769 12.6462 13.8001 12.6507C13.9232 12.6554 14.108 12.625 14.2681 13.0507C14.4281 13.4764 14.8111 14.5226 14.8601 14.6292C14.909 14.7359 14.9393 14.8595 14.8639 14.9965C14.7883 15.1339 14.7496 15.2197 14.6398 15.338C14.5295 15.4564 14.4077 15.6027 14.3093 15.6932C14.1995 15.7934 14.0849 15.9027 14.2003 16.1169C14.3156 16.3309 14.7135 17.0325 15.3198 17.6107C16.0989 18.354 16.7708 18.6005 16.9776 18.7129C17.1849 18.8258 17.3087 18.8132 17.4372 18.6779C17.5652 18.5426 17.9876 18.086 18.1363 17.8821C18.285 17.6777 18.4243 17.7177 18.6153 17.7945C18.8062 17.8717 19.8243 18.417 20.0316 18.5295C20.2388 18.6419 20.3772 18.6998 20.4267 18.7889C20.4762 18.8784 20.4606 19.2976 20.2662 19.7799Z" fill="#333333"/>
</g>
</svg>
