<svg width="16" height="17" viewBox="0 0 16 17" fill="none" xmlns="http://www.w3.org/2000/svg">
<g id="ant-design:youtube-filled">
<path id="Vector" d="M14.7078 5.50791C14.6281 5.2111 14.4719 4.94042 14.2547 4.72297C14.0375 4.50552 13.767 4.34892 13.4703 4.26885C12.3781 3.9751 8 3.9751 8 3.9751C8 3.9751 3.62187 3.9751 2.52969 4.26729C2.23284 4.3471 1.96223 4.50361 1.74501 4.7211C1.52779 4.93859 1.37162 5.2094 1.29219 5.50635C1 6.6001 1 8.88135 1 8.88135C1 8.88135 1 11.1626 1.29219 12.2548C1.45312 12.8579 1.92812 13.3329 2.52969 13.4938C3.62187 13.7876 8 13.7876 8 13.7876C8 13.7876 12.3781 13.7876 13.4703 13.4938C14.0734 13.3329 14.5469 12.8579 14.7078 12.2548C15 11.1626 15 8.88135 15 8.88135C15 8.88135 15 6.6001 14.7078 5.50791ZM6.60938 10.9751V6.7876L10.2344 8.86572L6.60938 10.9751Z" fill="#333333"/>
</g>
</svg>
